<?xml version="1.0" encoding="utf-8"?>
<!-- Generator: Adobe Illustrator 24.3.0, SVG Export Plug-In . SVG Version: 6.00 Build 0)  -->
<svg version="1.1" id="Capa_1" xmlns="http://www.w3.org/2000/svg" xmlns:xlink="http://www.w3.org/1999/xlink" x="0px" y="0px"
	 viewBox="0 0 59.23 58.21" style="enable-background:new 0 0 59.23 58.21;" xml:space="preserve">
<style type="text/css">
	.st0{fill:#49AC62;}
	.st1{fill:none;stroke:#49AC62;stroke-miterlimit:10;}
</style>
<g>
	<polygon class="st0" points="31.17,27.26 27.99,28.58 30.88,35.57 28.39,36.6 29.79,39.97 32.28,38.93 32.75,40.06 30.25,41.09 
		31.65,44.46 34.14,43.42 36.82,42.31 37.32,42.11 	"/>
	<path class="st0" d="M32.82,21.54c-1.23-2.96-4.62-4.37-7.59-3.14c-2.96,1.23-4.37,4.62-3.14,7.59c1.23,2.96,4.62,4.37,7.59,3.14
		C32.64,27.9,34.05,24.5,32.82,21.54z M24.75,24.88c-0.62-1.5,0.09-3.21,1.59-3.83c1.5-0.62,3.21,0.09,3.83,1.59
		c0.62,1.5-0.09,3.21-1.59,3.83C27.08,27.09,25.37,26.38,24.75,24.88z"/>
</g>
<circle class="st1" cx="28.92" cy="28.73" r="20.05"/>
</svg>
