<?xml version="1.0" encoding="utf-8"?>
<!-- Generator: Adobe Illustrator 22.1.0, SVG Export Plug-In . SVG Version: 6.00 Build 0)  -->
<svg version="1.1" id="Capa_1" xmlns="http://www.w3.org/2000/svg" xmlns:xlink="http://www.w3.org/1999/xlink" x="0px" y="0px"
	 viewBox="0 0 48.4 48.1" style="enable-background:new 0 0 48.4 48.1;" xml:space="preserve">
<style type="text/css">
	.st0{fill:#49AC62;}
	.st1{fill:none;stroke:#49AC62;stroke-width:3;stroke-miterlimit:10;}
</style>
<g>
	<polygon class="st0" points="26.8,22.7 23.6,24 26.5,31 24,32 25.4,35.4 27.9,34.3 28.4,35.5 25.8,36.5 27.2,39.9 29.7,38.8 
		32.4,37.7 32.9,37.5 	"/>
	<path class="st0" d="M28.4,16.9c-1.2-3-4.6-4.4-7.6-3.1c-3,1.2-4.4,4.6-3.1,7.6c1.2,3,4.6,4.4,7.6,3.1
		C28.2,23.3,29.6,19.9,28.4,16.9z M20.4,20.3c-0.6-1.5,0.1-3.2,1.6-3.8c1.5-0.6,3.2,0.1,3.8,1.6s-0.1,3.2-1.6,3.8S21,21.8,20.4,20.3
		z"/>
</g>
<circle class="st1" cx="24.5" cy="24.1" r="20"/>
</svg>
