<?xml version="1.0" encoding="utf-8"?>
<!-- Generator: Adobe Illustrator 24.3.0, SVG Export Plug-In . SVG Version: 6.00 Build 0)  -->
<svg version="1.1" id="Layer_1" xmlns="http://www.w3.org/2000/svg" xmlns:xlink="http://www.w3.org/1999/xlink" x="0px" y="0px"
	 viewBox="0 0 258.38 249.19" style="enable-background:new 0 0 258.38 249.19;" xml:space="preserve">
<style type="text/css">
	.st0{fill:#47AB61;}
	.st1{fill:none;stroke:#47AB61;stroke-width:6;stroke-miterlimit:10;}
</style>
<path class="st0" d="M156.77,123.01h-44.52V88.24c0-13.4,6.88-20.29,18.23-20.29c11.35,0,18.23,7.12,18.23,20.89v24.56h0
	c10.27,0,18.59-8.33,18.59-18.59v-6.44c0-24.87-13.89-37.55-36.59-37.55S93.65,63.37,93.65,88.96v36.85
	c-7.14,3.9-11.98,11.48-11.98,20.19v30.91c0,12.7,10.3,23,23,23h52.09c12.7,0,23-10.3,23-23v-30.91
	C179.77,133.31,169.47,123.01,156.77,123.01z M137.37,164.57v11.56c0,3.67-2.98,6.65-6.65,6.65c-3.67,0-6.65-2.98-6.65-6.65v-11.56
	c-3.62-2.23-6.04-6.23-6.04-10.8c0-7.01,5.68-12.69,12.69-12.69s12.69,5.68,12.69,12.69C143.41,158.34,140.99,162.34,137.37,164.57z
	"/>
<circle class="st1" cx="130.72" cy="125.36" r="113.42"/>
</svg>
