<?xml version="1.0" encoding="utf-8"?>
<!-- Generator: Adobe Illustrator 22.1.0, SVG Export Plug-In . SVG Version: 6.00 Build 0)  -->
<svg version="1.1" id="Layer_1" xmlns="http://www.w3.org/2000/svg" xmlns:xlink="http://www.w3.org/1999/xlink" x="0px" y="0px"
	 viewBox="0 0 258.4 249.2" style="enable-background:new 0 0 258.4 249.2;" xml:space="preserve">
<style type="text/css">
	.st0{fill:#47AB61;}
	.st1{fill:none;stroke:#47AB61;stroke-width:14;stroke-miterlimit:10;}
</style>
<path class="st0" d="M156.8,123h-44.5V88.2c0-13.4,6.9-20.3,18.2-20.3s18.2,7.1,18.2,20.9v24.6l0,0c10.3,0,18.6-8.3,18.6-18.6v-6.4
	c0-24.9-13.9-37.5-36.6-37.5S93.7,63.4,93.7,89v36.8c-7.1,3.9-12,11.5-12,20.2v30.9c0,12.7,10.3,23,23,23h52.1c12.7,0,23-10.3,23-23
	V146C179.8,133.3,169.5,123,156.8,123z M137.4,164.6v11.6c0,3.7-3,6.6-6.6,6.6s-6.7-3-6.7-6.6v-11.6c-3.6-2.2-6-6.2-6-10.8
	c0-7,5.7-12.7,12.7-12.7c7,0,12.7,5.7,12.7,12.7C143.4,158.3,141,162.3,137.4,164.6z"/>
<circle class="st1" cx="130.7" cy="125.4" r="113.4"/>
</svg>
