<?xml version="1.0" encoding="utf-8"?>
<!-- Generator: Adobe Illustrator 24.3.0, SVG Export Plug-In . SVG Version: 6.00 Build 0)  -->
<svg version="1.1" id="Layer_1" xmlns="http://www.w3.org/2000/svg" xmlns:xlink="http://www.w3.org/1999/xlink" x="0px" y="0px"
	 viewBox="0 0 759.83 249.19" style="enable-background:new 0 0 759.83 249.19;" xml:space="preserve">
<style type="text/css">
	.st0{opacity:0.5;}
	.st1{fill:#CBCDCD;}
	.st2{fill:#47AB61;}
	.st3{fill:#FFFFFF;}
</style>
<g class="st0">
	<path class="st1" d="M158.38,187.59v12.81c0,4.07-3.3,7.36-7.36,7.36c-4.07,0-7.36-3.3-7.36-7.36v-12.81
		c-4.01-2.48-6.7-6.9-6.7-11.96c0-7.77,6.29-14.06,14.06-14.06s14.06,6.29,14.06,14.06C165.08,180.69,162.4,185.11,158.38,187.59z
		 M179.88,141.54h-49.33v-38.52c0-14.85,7.63-22.47,20.2-22.47c12.57,0,20.2,7.89,20.2,23.14v27.2h0c11.38,0,20.6-9.22,20.6-20.6
		v-7.14c0-27.56-15.38-41.6-40.53-41.6s-41.07,13.91-41.07,42.27v40.83c-7.91,4.33-13.27,12.72-13.27,22.37v34.24
		c0,14.07,11.41,25.48,25.48,25.48h57.72c14.07,0,25.48-11.41,25.48-25.48v-34.24C205.36,152.95,193.95,141.54,179.88,141.54z"/>
</g>
<path class="st2" d="M179.88,141.54h-49.33v-38.52c0-14.85,7.63-22.47,20.2-22.47c12.57,0,20.2,7.89,20.2,23.14v27.2h0
	c11.38,0,20.6-9.22,20.6-20.6v-7.14c0-27.56-15.38-41.6-40.53-41.6s-41.07,13.91-41.07,42.27v40.83
	c-7.91,4.33-13.27,12.72-13.27,22.37v34.24c0,14.07,11.41,25.48,25.48,25.48h57.72c14.07,0,25.48-11.41,25.48-25.48v-34.24
	C205.36,152.95,193.95,141.54,179.88,141.54z M158.38,187.59v12.81c0,4.07-3.3,7.36-7.36,7.36c-4.07,0-7.36-3.3-7.36-7.36v-12.81
	c-4.01-2.48-6.7-6.9-6.7-11.96c0-7.77,6.29-14.06,14.06-14.06s14.06,6.29,14.06,14.06C165.08,180.69,162.4,185.11,158.38,187.59z"/>
<g>
	<path class="st3" d="M250.28,60.78c-10.5,0-19.98,3.05-27.71,8.25V27.91c-11.5,0-20.83,9.32-20.83,20.83v59.55v0.34
		c0,25.82,20.48,46.99,48.19,46.99c28.05,0,48.71-21.51,48.71-47.33v-0.34C298.64,81.95,278.16,60.78,250.28,60.78z M277.82,108.63
		c0,15.66-10.67,28.91-27.54,28.91c-16.18,0-27.71-13.42-27.71-29.25v-0.36c0-15.83,10.67-28.91,27.37-28.91
		c16.35,0,27.88,13.25,27.88,29.26V108.63z"/>
	<path class="st3" d="M78.86,82.29v33.04c0,14.85-7.63,22.47-20.2,22.47c-12.57,0-20.2-7.89-20.2-23.14V61.69h0
		c-11.38,0-20.6,9.22-20.6,20.6v32.91c0,27.56,15.38,41.6,40.53,41.6c25.15,0,41.07-13.91,41.07-42.27V61.69
		C88.08,61.69,78.86,70.91,78.86,82.29z"/>
	<path class="st3" d="M309.45,48.73v104.81h0c11.5,0,20.83-9.32,20.83-20.83V27.91C318.77,27.91,309.45,37.23,309.45,48.73z"/>
	<path class="st3" d="M390.68,60.78c-27.88,0-48.53,21.51-48.53,47.5v0.34c0,25.82,20.48,46.99,48.19,46.99
		c28.05,0,48.71-21.51,48.71-47.33v-0.34C439.05,81.95,418.57,60.78,390.68,60.78z M418.22,108.63c0,15.66-10.67,28.91-27.54,28.91
		c-16.18,0-27.71-13.42-27.71-29.26v-0.34c0-15.83,10.67-28.91,27.37-28.91c16.35,0,27.88,13.25,27.88,29.26V108.63z"/>
	<path class="st3" d="M492.91,137.54c-16.01,0-27.19-13.08-27.19-29.26v-0.34c0-15.83,11.01-28.91,26.16-28.91
		c10.5,0,17.21,4.65,23.58,11.36l12.91-13.94c-8.43-9.29-19.1-15.66-36.32-15.66c-27.19,0-47.16,21.69-47.16,47.5v0.34
		c0,25.82,19.96,46.99,46.99,46.99c17.73,0,28.23-7.06,37.18-17.04l-12.56-12.39C509.95,132.9,502.72,137.54,492.91,137.54z"/>
	<path class="st3" d="M621.65,62.67h-25.3l-37.69,40.27V27.91h0c-11.5,0-20.83,9.32-20.83,20.83v104.81h20.83v-25.99l12.74-13.25
		l18.99,27.23c5.25,7.52,13.84,12.01,23.02,12.01h9.45l-37.35-53.87L621.65,62.67z"/>
	<path class="st3" d="M631.03,83.5v70.05c11.5,0,20.83-9.32,20.83-20.83V62.67C640.35,62.67,631.03,72,631.03,83.5z"/>
	<path class="st3" d="M702.88,61.3c-14.8,0-24.61,3.1-34.59,7.57l5.68,16.69c8.26-3.44,15.83-5.68,25.99-5.68
		c14.46,0,22.37,6.88,22.37,19.45v1.72c-7.06-2.24-14.11-3.79-25.13-3.79c-21.17,0-36.83,9.64-36.83,29.78v0.34
		c0,18.24,15.15,28.05,32.36,28.05c13.77,0,23.23-5.68,29.43-13.08v12.46c11.41,0,20.65-9.25,20.65-20.65V99.68
		C742.81,75.41,729.73,61.3,702.88,61.3z M722.67,120.68c0,11.36-10.33,19.1-24.1,19.1c-9.81,0-17.56-4.82-17.56-13.42v-0.34
		c0-8.78,7.74-14.11,20.83-14.11c8.09,0,15.49,1.55,20.83,3.61V120.68z"/>
	<circle class="st3" cx="641.12" cy="41.13" r="12.92"/>
</g>
</svg>
